<?xml version="1.0" encoding="UTF-8"?>
<svg xmlns="http://www.w3.org/2000/svg" width="1024" height="1024" viewBox="0 0 1024 1024">
<defs>
<linearGradient id="gPaper" x1="0" y1="0" x2="0" y2="1"><stop offset="0" stop-color="#ffffff"/><stop offset="1" stop-color="#eceff4"/></linearGradient>
<linearGradient id="gMast" x1="0" y1="0" x2="0" y2="1"><stop offset="0" stop-color="#5a94f0"/><stop offset="0.5" stop-color="#2f62c8"/><stop offset="1" stop-color="#1a3a92"/></linearGradient>
<linearGradient id="gGloss" x1="0" y1="0" x2="0" y2="1"><stop offset="0" stop-color="#ffffff" stop-opacity="0.55"/><stop offset="1" stop-color="#ffffff" stop-opacity="0.06"/></linearGradient>
<linearGradient id="gText" x1="0" y1="0" x2="0" y2="1"><stop offset="0" stop-color="#ffffff"/><stop offset="1" stop-color="#cfdeff"/></linearGradient>
<linearGradient id="gSpine" x1="0" y1="0" x2="1" y2="0"><stop offset="0" stop-color="#000000" stop-opacity="0.16"/><stop offset="0.45" stop-color="#000000" stop-opacity="0.02"/><stop offset="0.6" stop-color="#ffffff" stop-opacity="0.5"/><stop offset="1" stop-color="#ffffff" stop-opacity="0"/></linearGradient>
<linearGradient id="gFlap" x1="0.5" y1="0.5" x2="0" y2="0"><stop offset="0" stop-color="#aeb4c2"/><stop offset="1" stop-color="#f7f8fb"/></linearGradient>
<linearGradient id="gSky" x1="0" y1="0" x2="0" y2="1"><stop offset="0" stop-color="#1d4f9c"/><stop offset="0.55" stop-color="#f2865a"/><stop offset="1" stop-color="#ffd493"/></linearGradient>
<linearGradient id="gClipMetal" x1="0" y1="0" x2="1" y2="0"><stop offset="0" stop-color="#f4f6fa"/><stop offset="0.35" stop-color="#aab2c1"/><stop offset="0.6" stop-color="#eef1f6"/><stop offset="1" stop-color="#7a8294"/></linearGradient>
<linearGradient id="gCardW" x1="0" y1="0" x2="0" y2="1"><stop offset="0" stop-color="#ffffff"/><stop offset="1" stop-color="#e6e9ef"/></linearGradient>
<linearGradient id="gCyan" x1="0" y1="0" x2="0" y2="1"><stop offset="0" stop-color="#35c0f2"/><stop offset="1" stop-color="#0e7db6"/></linearGradient>
<linearGradient id="gMagenta" x1="0" y1="0" x2="0" y2="1"><stop offset="0" stop-color="#ee3a92"/><stop offset="1" stop-color="#a3125a"/></linearGradient>
<linearGradient id="gYellow" x1="0" y1="0" x2="0" y2="1"><stop offset="0" stop-color="#ffdd55"/><stop offset="1" stop-color="#e8a90c"/></linearGradient>
<clipPath id="cPhoto"><rect x="258" y="384" width="244" height="190" rx="4"/></clipPath>
<filter id="fShadow" x="-15%" y="-15%" width="130%" height="140%">
<feGaussianBlur in="SourceAlpha" stdDeviation="26" result="b1"/>
<feOffset in="b1" dy="30" result="o1"/>
<feFlood flood-color="#0a1633" flood-opacity="0.42"/>
<feComposite in2="o1" operator="in" result="s1"/>
<feGaussianBlur in="SourceAlpha" stdDeviation="5" result="b2"/>
<feOffset in="b2" dy="7" result="o2"/>
<feFlood flood-color="#0a1633" flood-opacity="0.5"/>
<feComposite in2="o2" operator="in" result="s2"/>
<feMerge><feMergeNode in="s1"/><feMergeNode in="s2"/><feMergeNode in="SourceGraphic"/></feMerge>
</filter>
<filter id="fSmall" x="-30%" y="-30%" width="160%" height="160%"><feDropShadow dx="0" dy="4" stdDeviation="4" flood-color="#0a1633" flood-opacity="0.4"/></filter>
<filter id="fFlap" x="-40%" y="-40%" width="180%" height="180%"><feDropShadow dx="-3" dy="-3" stdDeviation="5" flood-color="#0a1633" flood-opacity="0.35"/></filter>
<filter id="fGlow" x="-300%" y="-50%" width="700%" height="200%"><feGaussianBlur stdDeviation="5"/></filter>
</defs>

<g transform="rotate(-4 512 512)">

<!-- abanico de muestras de color -->
<g transform="translate(560 790) rotate(76)" filter="url(#fSmall)">
<rect x="-48" y="-400" width="96" height="400" rx="8" fill="url(#gCardW)" stroke="#b9bfcb" stroke-width="1.5"/>
<rect x="-40" y="-392" width="80" height="214" rx="4" fill="url(#gMagenta)"/>
<rect x="-40" y="-392" width="80" height="100" rx="4" fill="#ffffff" opacity="0.16"/>
<rect x="-40" y="-164" width="52" height="7" rx="3" fill="#8f98ab"/>
<rect x="-40" y="-148" width="36" height="6" rx="3" fill="#b7bfce"/>
</g>
<g transform="translate(560 790) rotate(58)" filter="url(#fSmall)">
<rect x="-48" y="-400" width="96" height="400" rx="8" fill="url(#gCardW)" stroke="#b9bfcb" stroke-width="1.5"/>
<rect x="-40" y="-392" width="80" height="214" rx="4" fill="url(#gYellow)"/>
<rect x="-40" y="-392" width="80" height="100" rx="4" fill="#ffffff" opacity="0.16"/>
<rect x="-40" y="-164" width="52" height="7" rx="3" fill="#8f98ab"/>
<rect x="-40" y="-148" width="36" height="6" rx="3" fill="#b7bfce"/>
</g>
<g transform="translate(560 790) rotate(40)" filter="url(#fSmall)">
<rect x="-48" y="-400" width="96" height="400" rx="8" fill="url(#gCardW)" stroke="#b9bfcb" stroke-width="1.5"/>
<rect x="-40" y="-392" width="80" height="214" rx="4" fill="url(#gCyan)"/>
<rect x="-40" y="-392" width="80" height="100" rx="4" fill="#ffffff" opacity="0.16"/>
<rect x="-40" y="-164" width="52" height="7" rx="3" fill="#8f98ab"/>
<rect x="-40" y="-148" width="36" height="6" rx="3" fill="#b7bfce"/>
</g>

<!-- canto de páginas apiladas -->
<rect x="248" y="186" width="560" height="700" rx="14" fill="#cfd3dc" stroke="#aeb4c0" stroke-width="0.8"/>
<rect x="244" y="182" width="560" height="700" rx="14" fill="#e1e4ea" stroke="#aeb4c0" stroke-width="0.8"/>
<rect x="240" y="178" width="560" height="700" rx="14" fill="#cbd0da" stroke="#aeb4c0" stroke-width="0.8"/>
<rect x="236" y="174" width="560" height="700" rx="14" fill="#e6e9ef" stroke="#aeb4c0" stroke-width="0.8"/>

<!-- portada -->
<path d="M246 170 H778 Q792 170 792 184 V800 L722 870 H246 Q232 870 232 856 V184 Q232 170 246 170 Z" fill="url(#gPaper)" stroke="#bfc5d1" stroke-width="1.5"/>
<rect x="232" y="170" width="38" height="700" fill="url(#gSpine)"/>

<!-- cabecera -->
<rect x="258" y="198" width="508" height="156" rx="6" fill="url(#gMast)" stroke="#112a73" stroke-width="2"/>
<path d="M260 204 Q260 200 264 200 H760 Q764 200 764 204 V262 Q512 296 260 262 Z" fill="url(#gGloss)"/>
<rect x="258" y="352" width="508" height="2" fill="#7fa8f5" opacity="0.6"/>
<path d="M427.37 212.25Q435.49 212.25 440.71 214.45Q445.93 216.66 449.87 219.79Q451.15 220.83 452.19 220.83Q454.40 220.83 455.09 213.87H457.76Q457.53 218.51 457.41 225.18Q457.30 231.85 457.30 242.87H454.63Q453.82 234.52 451.79 228.89Q449.76 223.27 443.96 219.32Q441.52 217.70 438.27 216.77Q435.02 215.84 432.01 215.84Q425.28 215.84 420.87 219.50Q416.46 223.15 413.85 229.01Q411.24 234.87 410.14 241.77Q409.04 248.67 409.04 255.17Q409.04 276.05 414.14 285.68Q419.25 295.30 427.72 295.30Q429.57 295.30 430.96 294.96Q432.36 294.61 433.40 293.91Q434.68 292.98 435.26 291.59Q435.84 290.20 435.84 288.11V276.51Q435.84 270.83 434.97 268.04Q434.10 265.26 431.54 264.22Q428.99 263.17 424.12 263.06V260.74Q426.79 260.85 430.62 260.91Q434.44 260.97 438.62 261.03Q442.80 261.08 446.28 261.08Q451.84 261.08 456.54 260.97Q461.24 260.85 464.14 260.74V263.06Q462.17 263.17 461.12 263.87Q460.08 264.56 459.73 266.65Q459.38 268.74 459.38 273.03V296.00H457.06Q456.95 294.03 456.14 291.71Q455.32 289.39 453.47 289.39Q452.54 289.39 450.86 289.85Q449.18 290.32 445.58 292.06Q441.06 294.26 436.01 295.94Q430.96 297.62 425.98 297.62Q411.48 297.62 401.73 292.64Q391.99 287.65 387.17 278.25Q382.36 268.86 382.36 255.63Q382.36 242.64 388.10 232.90Q393.84 223.15 403.99 217.70Q414.14 212.25 427.37 212.25Z M475.13 213.87Q478.52 213.99 484.02 214.10Q489.51 214.22 495.08 214.22Q500.89 214.22 506.21 214.10Q511.53 213.99 513.76 213.99Q529.65 213.99 537.42 219.09Q545.19 224.20 545.19 232.20Q545.19 236.26 542.29 240.61Q539.39 244.96 533.48 248.27Q527.56 251.57 518.40 252.73V252.96Q530.34 253.54 537.54 256.68Q544.73 259.81 547.98 264.27Q551.22 268.74 551.22 273.50Q551.22 281.27 547.05 286.26Q542.87 291.24 535.07 293.62Q527.26 296.00 516.42 296.00Q513.64 296.00 508.26 295.83Q502.89 295.65 495.31 295.65Q489.51 295.65 484.02 295.71Q478.52 295.77 475.13 296.00V293.68Q478.72 293.45 480.45 292.75Q482.18 292.06 482.77 289.97Q483.36 287.88 483.36 283.70V226.17Q483.36 221.88 482.76 219.85Q482.15 217.82 480.38 217.06Q478.61 216.31 475.13 216.19ZM513.18 216.19Q509.28 216.19 508.10 218.16Q506.91 220.14 506.91 226.17V283.70Q506.91 287.76 507.52 289.85Q508.12 291.94 509.73 292.64Q511.34 293.33 514.45 293.33Q520.96 293.33 523.91 288.05Q526.86 282.78 526.86 273.03Q526.86 264.10 522.63 259.23Q518.40 254.36 508.54 254.36H500.07Q500.07 254.36 500.07 253.37Q500.07 252.38 500.07 252.38H510.04Q514.56 252.38 517.01 249.77Q519.46 247.16 520.38 242.81Q521.30 238.46 521.30 233.48Q521.30 224.89 519.41 220.54Q517.53 216.19 513.18 216.19Z M605.71 213.87 633.78 286.26Q635.41 290.20 637.26 291.88Q639.12 293.56 640.63 293.68V296.00Q636.45 295.77 630.88 295.71Q625.32 295.65 619.52 295.65Q613.60 295.65 608.38 295.71Q603.16 295.77 600.03 296.00V293.68Q605.94 293.45 607.51 291.65Q609.08 289.85 606.76 283.94L588.20 232.55L590.52 228.49L574.51 270.13Q571.61 277.67 570.97 282.25Q570.33 286.84 571.49 289.27Q572.65 291.71 575.20 292.64Q577.76 293.56 581.24 293.68V296.00Q576.94 295.77 573.52 295.71Q570.10 295.65 566.04 295.65Q563.84 295.65 561.34 295.71Q558.85 295.77 557.11 296.00V293.68Q559.78 293.22 562.39 290.26Q565.00 287.30 567.78 280.11L593.53 213.87Q596.32 214.10 599.62 214.10Q602.93 214.10 605.71 213.87ZM609.77 262.59V264.91H575.20L576.36 262.59Z" fill="#0c2161" opacity="0.7" transform="translate(0 4)"/>
<path d="M427.37 212.25Q435.49 212.25 440.71 214.45Q445.93 216.66 449.87 219.79Q451.15 220.83 452.19 220.83Q454.40 220.83 455.09 213.87H457.76Q457.53 218.51 457.41 225.18Q457.30 231.85 457.30 242.87H454.63Q453.82 234.52 451.79 228.89Q449.76 223.27 443.96 219.32Q441.52 217.70 438.27 216.77Q435.02 215.84 432.01 215.84Q425.28 215.84 420.87 219.50Q416.46 223.15 413.85 229.01Q411.24 234.87 410.14 241.77Q409.04 248.67 409.04 255.17Q409.04 276.05 414.14 285.68Q419.25 295.30 427.72 295.30Q429.57 295.30 430.96 294.96Q432.36 294.61 433.40 293.91Q434.68 292.98 435.26 291.59Q435.84 290.20 435.84 288.11V276.51Q435.84 270.83 434.97 268.04Q434.10 265.26 431.54 264.22Q428.99 263.17 424.12 263.06V260.74Q426.79 260.85 430.62 260.91Q434.44 260.97 438.62 261.03Q442.80 261.08 446.28 261.08Q451.84 261.08 456.54 260.97Q461.24 260.85 464.14 260.74V263.06Q462.17 263.17 461.12 263.87Q460.08 264.56 459.73 266.65Q459.38 268.74 459.38 273.03V296.00H457.06Q456.95 294.03 456.14 291.71Q455.32 289.39 453.47 289.39Q452.54 289.39 450.86 289.85Q449.18 290.32 445.58 292.06Q441.06 294.26 436.01 295.94Q430.96 297.62 425.98 297.62Q411.48 297.62 401.73 292.64Q391.99 287.65 387.17 278.25Q382.36 268.86 382.36 255.63Q382.36 242.64 388.10 232.90Q393.84 223.15 403.99 217.70Q414.14 212.25 427.37 212.25Z M475.13 213.87Q478.52 213.99 484.02 214.10Q489.51 214.22 495.08 214.22Q500.89 214.22 506.21 214.10Q511.53 213.99 513.76 213.99Q529.65 213.99 537.42 219.09Q545.19 224.20 545.19 232.20Q545.19 236.26 542.29 240.61Q539.39 244.96 533.48 248.27Q527.56 251.57 518.40 252.73V252.96Q530.34 253.54 537.54 256.68Q544.73 259.81 547.98 264.27Q551.22 268.74 551.22 273.50Q551.22 281.27 547.05 286.26Q542.87 291.24 535.07 293.62Q527.26 296.00 516.42 296.00Q513.64 296.00 508.26 295.83Q502.89 295.65 495.31 295.65Q489.51 295.65 484.02 295.71Q478.52 295.77 475.13 296.00V293.68Q478.72 293.45 480.45 292.75Q482.18 292.06 482.77 289.97Q483.36 287.88 483.36 283.70V226.17Q483.36 221.88 482.76 219.85Q482.15 217.82 480.38 217.06Q478.61 216.31 475.13 216.19ZM513.18 216.19Q509.28 216.19 508.10 218.16Q506.91 220.14 506.91 226.17V283.70Q506.91 287.76 507.52 289.85Q508.12 291.94 509.73 292.64Q511.34 293.33 514.45 293.33Q520.96 293.33 523.91 288.05Q526.86 282.78 526.86 273.03Q526.86 264.10 522.63 259.23Q518.40 254.36 508.54 254.36H500.07Q500.07 254.36 500.07 253.37Q500.07 252.38 500.07 252.38H510.04Q514.56 252.38 517.01 249.77Q519.46 247.16 520.38 242.81Q521.30 238.46 521.30 233.48Q521.30 224.89 519.41 220.54Q517.53 216.19 513.18 216.19Z M605.71 213.87 633.78 286.26Q635.41 290.20 637.26 291.88Q639.12 293.56 640.63 293.68V296.00Q636.45 295.77 630.88 295.71Q625.32 295.65 619.52 295.65Q613.60 295.65 608.38 295.71Q603.16 295.77 600.03 296.00V293.68Q605.94 293.45 607.51 291.65Q609.08 289.85 606.76 283.94L588.20 232.55L590.52 228.49L574.51 270.13Q571.61 277.67 570.97 282.25Q570.33 286.84 571.49 289.27Q572.65 291.71 575.20 292.64Q577.76 293.56 581.24 293.68V296.00Q576.94 295.77 573.52 295.71Q570.10 295.65 566.04 295.65Q563.84 295.65 561.34 295.71Q558.85 295.77 557.11 296.00V293.68Q559.78 293.22 562.39 290.26Q565.00 287.30 567.78 280.11L593.53 213.87Q596.32 214.10 599.62 214.10Q602.93 214.10 605.71 213.87ZM609.77 262.59V264.91H575.20L576.36 262.59Z" fill="url(#gText)" />
<line x1="292" y1="328" x2="365" y2="328" stroke="#8fb2f5" stroke-width="1.5"/>
<line x1="659" y1="328" x2="732" y2="328" stroke="#8fb2f5" stroke-width="1.5"/>
<path d="M389.31 334.00 384.67 320.00H387.35L391.49 332.66H390.15L394.46 320.00H396.87L401.04 332.66H399.75L403.98 320.00H406.46L401.82 334.00H399.06L395.23 322.58H395.96L392.08 334.00Z M428.43 334.20Q426.80 334.20 425.42 333.66Q424.04 333.12 423.02 332.15Q422.00 331.17 421.44 329.86Q420.88 328.55 420.88 327.00Q420.88 325.44 421.44 324.14Q422.00 322.83 423.02 321.85Q424.04 320.88 425.42 320.34Q426.80 319.80 428.43 319.80Q430.06 319.80 431.43 320.34Q432.80 320.87 433.82 321.84Q434.83 322.81 435.40 324.12Q435.96 325.44 435.96 327.00Q435.96 328.56 435.40 329.88Q434.83 331.19 433.82 332.16Q432.80 333.13 431.43 333.66Q430.06 334.20 428.43 334.20ZM428.43 331.93Q429.49 331.93 430.38 331.56Q431.28 331.20 431.94 330.53Q432.60 329.87 432.97 328.97Q433.34 328.07 433.34 326.99Q433.34 325.92 432.98 325.03Q432.61 324.13 431.94 323.47Q431.28 322.80 430.38 322.44Q429.49 322.07 428.43 322.07Q427.37 322.07 426.47 322.44Q425.57 322.80 424.90 323.47Q424.23 324.14 423.86 325.03Q423.49 325.92 423.49 326.99Q423.49 328.06 423.86 328.96Q424.23 329.86 424.90 330.53Q425.57 331.20 426.47 331.57Q427.37 331.93 428.43 331.93Z M451.73 334.00V320.00H457.45Q460.25 320.00 461.85 321.32Q463.44 322.65 463.44 324.98Q463.44 326.52 462.72 327.63Q462.00 328.73 460.67 329.33Q459.33 329.92 457.48 329.92H453.16L454.32 328.75V334.00ZM460.88 334.00 457.33 328.92H460.12L463.69 334.00ZM454.32 329.03 453.16 327.77H457.37Q459.08 327.77 459.95 327.04Q460.82 326.30 460.82 324.98Q460.82 323.65 459.95 322.92Q459.08 322.19 457.37 322.19H453.16L454.32 320.93Z M481.65 330.70 481.52 327.61 488.85 320.00H491.78L485.68 326.49L484.23 328.07ZM479.35 334.00V320.00H481.93V334.00ZM489.11 334.00 483.73 327.62 485.45 325.72 492.15 334.00Z M511.26 334.20Q509.62 334.20 508.12 333.73Q506.62 333.26 505.74 332.51L506.65 330.50Q507.49 331.17 508.73 331.61Q509.97 332.04 511.27 332.04Q512.36 332.04 513.04 331.81Q513.72 331.57 514.04 331.15Q514.36 330.74 514.36 330.22Q514.36 329.58 513.90 329.19Q513.45 328.81 512.71 328.57Q511.98 328.33 511.09 328.14Q510.20 327.94 509.31 327.67Q508.42 327.40 507.69 326.97Q506.95 326.53 506.50 325.82Q506.04 325.10 506.04 323.98Q506.04 322.84 506.65 321.89Q507.26 320.94 508.51 320.37Q509.76 319.80 511.67 319.80Q512.94 319.80 514.18 320.12Q515.42 320.44 516.34 321.04L515.52 323.07Q514.58 322.49 513.59 322.23Q512.59 321.96 511.65 321.96Q510.59 321.96 509.91 322.22Q509.23 322.48 508.92 322.90Q508.61 323.33 508.61 323.86Q508.61 324.50 509.07 324.89Q509.52 325.27 510.26 325.50Q510.99 325.73 511.88 325.93Q512.77 326.13 513.66 326.39Q514.55 326.66 515.28 327.08Q516.02 327.51 516.47 328.22Q516.93 328.94 516.93 330.04Q516.93 331.16 516.31 332.11Q515.69 333.05 514.44 333.63Q513.18 334.20 511.26 334.20Z M532.51 334.00V320.00H538.26Q540.11 320.00 541.45 320.60Q542.78 321.19 543.50 322.31Q544.22 323.43 544.22 324.98Q544.22 326.52 543.50 327.64Q542.78 328.75 541.45 329.35Q540.11 329.95 538.26 329.95H533.94L535.10 328.75V334.00ZM535.10 329.03 533.94 327.76H538.15Q539.86 327.76 540.73 327.03Q541.60 326.30 541.60 324.98Q541.60 323.65 540.73 322.92Q539.86 322.19 538.15 322.19H533.94L535.10 320.93Z M558.04 334.00 564.33 320.00H566.90L573.21 334.00H570.49L565.08 321.39H566.12L560.71 334.00ZM560.95 330.76 561.64 328.72H569.20L569.91 330.76Z M594.48 334.20Q592.87 334.20 591.50 333.67Q590.13 333.14 589.13 332.17Q588.12 331.20 587.56 329.88Q587.00 328.57 587.00 327.00Q587.00 325.43 587.56 324.12Q588.12 322.80 589.14 321.83Q590.15 320.86 591.52 320.33Q592.89 319.80 594.50 319.80Q596.21 319.80 597.64 320.39Q599.06 320.98 600.03 322.13L598.36 323.73Q597.60 322.90 596.66 322.48Q595.71 322.07 594.62 322.07Q593.53 322.07 592.62 322.43Q591.70 322.80 591.03 323.46Q590.36 324.12 589.98 325.02Q589.61 325.92 589.61 327.00Q589.61 328.08 589.98 328.98Q590.36 329.88 591.03 330.54Q591.70 331.20 592.62 331.57Q593.53 331.93 594.62 331.93Q595.71 331.93 596.66 331.52Q597.60 331.10 598.36 330.25L600.03 331.85Q599.06 333.00 597.64 333.60Q596.21 334.20 594.48 334.20Z M615.37 334.00V320.00H625.58V322.18H617.95V331.82H625.86V334.00ZM617.76 327.96V325.83H624.73V327.96Z" fill="#cfe0ff" />

<!-- foto -->
<g clip-path="url(#cPhoto)">
<rect x="258" y="384" width="244" height="190" fill="url(#gSky)"/>
<circle cx="386" cy="492" r="62" fill="#ffffff" opacity="0.18"/>
<circle cx="386" cy="492" r="30" fill="#fff0c0" opacity="0.95"/>
<path d="M258 574 V525 Q318 478 380 520 T502 506 V574 Z" fill="#2b5668"/>
<path d="M258 574 V552 Q338 522 418 556 T502 546 V574 Z" fill="#12293a"/>
<rect x="258" y="384" width="244" height="80" fill="#ffffff" opacity="0.1"/>
</g>
<rect x="258" y="384" width="244" height="190" rx="4" fill="none" stroke="#1b2a4a" stroke-opacity="0.3" stroke-width="1.5"/>
<rect x="258" y="586" width="140" height="7" rx="3" fill="#8a93a6"/>
<rect x="258" y="600" width="100" height="6" rx="3" fill="#b7bfce"/>

<!-- columna de texto -->
<rect x="522" y="388" width="238" height="16" rx="3" fill="#1b2a4a"/>
<rect x="522" y="412" width="170" height="16" rx="3" fill="#1b2a4a"/>
<rect x="522" y="444" width="244" height="6" rx="3" fill="#aab3c5"/>
<rect x="522" y="459" width="236" height="6" rx="3" fill="#aab3c5"/>
<rect x="522" y="474" width="244" height="6" rx="3" fill="#aab3c5"/>
<rect x="522" y="489" width="240" height="6" rx="3" fill="#aab3c5"/>
<rect x="522" y="504" width="226" height="6" rx="3" fill="#aab3c5"/>
<rect x="522" y="519" width="244" height="6" rx="3" fill="#aab3c5"/>
<rect x="522" y="534" width="232" height="6" rx="3" fill="#aab3c5"/>
<rect x="522" y="549" width="244" height="6" rx="3" fill="#aab3c5"/>
<rect x="522" y="564" width="150" height="6" rx="3" fill="#aab3c5"/>

<!-- cuerpo de texto con selección y cursor -->
<rect x="258" y="674" width="188" height="18" rx="3" fill="#b9d3ff"/>
<rect x="258" y="640" width="508" height="6" rx="3" fill="#98a1b4"/>
<rect x="258" y="660" width="500" height="6" rx="3" fill="#98a1b4"/>
<rect x="258" y="680" width="508" height="6" rx="3" fill="#7d89a3"/>
<rect x="258" y="700" width="466" height="6" rx="3" fill="#98a1b4"/>
<rect x="258" y="720" width="508" height="6" rx="3" fill="#98a1b4"/>
<rect x="258" y="740" width="430" height="6" rx="3" fill="#98a1b4"/>
<rect x="258" y="760" width="508" height="6" rx="3" fill="#98a1b4"/>
<rect x="258" y="780" width="296" height="6" rx="3" fill="#98a1b4"/>
<rect x="560" y="770" width="4" height="26" rx="2" fill="#2f6fe0" filter="url(#fGlow)"/>
<rect x="561" y="772" width="3" height="22" rx="1.5" fill="#2f6fe0"/>

<!-- pie de página -->
<rect x="258" y="822" width="430" height="1.5" fill="#d3d8e2"/>
<path d="M263.89 852.14Q262.75 852.14 261.79 851.77Q260.82 851.40 260.11 850.72Q259.40 850.04 259.01 849.12Q258.61 848.20 258.61 847.10Q258.61 846.00 259.01 845.08Q259.40 844.16 260.12 843.48Q260.84 842.80 261.80 842.43Q262.77 842.06 263.93 842.06Q265.16 842.06 266.16 842.47Q267.16 842.87 267.86 843.66L266.71 844.78Q266.13 844.20 265.47 843.92Q264.80 843.65 264.01 843.65Q263.23 843.65 262.58 843.90Q261.92 844.16 261.44 844.62Q260.96 845.08 260.71 845.71Q260.45 846.34 260.45 847.10Q260.45 847.84 260.71 848.47Q260.96 849.10 261.44 849.57Q261.92 850.04 262.57 850.30Q263.21 850.55 263.99 850.55Q264.72 850.55 265.40 850.32Q266.08 850.09 266.69 849.54L267.72 850.89Q266.96 851.51 265.95 851.82Q264.93 852.14 263.89 852.14ZM267.72 850.89 266.01 850.66V846.99H267.72Z M275.13 852.00V842.20H279.72Q281.48 842.20 282.41 842.89Q283.33 843.58 283.33 844.75Q283.33 845.53 282.96 846.09Q282.60 846.64 281.99 846.94Q281.39 847.24 280.66 847.24L280.92 846.74Q281.75 846.74 282.41 847.04Q283.06 847.34 283.45 847.91Q283.83 848.49 283.83 849.33Q283.83 850.60 282.86 851.30Q281.90 852.00 280.00 852.00ZM276.94 850.57H279.89Q280.91 850.57 281.45 850.23Q281.99 849.90 281.99 849.16Q281.99 848.43 281.45 848.09Q280.91 847.75 279.89 847.75H276.80V846.33H279.52Q280.47 846.33 280.98 846.00Q281.50 845.66 281.50 844.98Q281.50 844.30 280.98 843.97Q280.47 843.63 279.52 843.63H276.94Z M289.39 852.00 293.80 842.20H295.59L300.01 852.00H298.11L294.32 843.17H295.05L291.26 852.00ZM291.43 849.73 291.91 848.30H297.20L297.70 849.73Z  M315.81 849.27Q315.32 849.27 314.99 848.95Q314.65 848.62 314.65 848.10Q314.65 847.58 314.99 847.26Q315.32 846.94 315.81 846.94Q316.30 846.94 316.62 847.26Q316.95 847.58 316.95 848.10Q316.95 848.62 316.62 848.95Q316.30 849.27 315.81 849.27Z  M335.28 852.00 332.04 842.20H333.91L336.81 851.06H335.87L338.89 842.20H340.58L343.50 851.06H342.59L345.55 842.20H347.29L344.04 852.00H342.11L339.43 844.01H339.94L337.23 852.00Z M358.57 852.14Q357.43 852.14 356.46 851.76Q355.49 851.38 354.78 850.70Q354.07 850.02 353.68 849.10Q353.28 848.19 353.28 847.10Q353.28 846.01 353.68 845.10Q354.07 844.18 354.78 843.50Q355.50 842.81 356.46 842.44Q357.43 842.06 358.57 842.06Q359.71 842.06 360.67 842.44Q361.63 842.81 362.34 843.49Q363.05 844.17 363.45 845.09Q363.84 846.01 363.84 847.10Q363.84 848.19 363.45 849.11Q363.05 850.03 362.34 850.71Q361.63 851.39 360.67 851.76Q359.71 852.14 358.57 852.14ZM358.57 850.55Q359.31 850.55 359.94 850.29Q360.56 850.04 361.03 849.57Q361.49 849.11 361.75 848.48Q362.01 847.85 362.01 847.10Q362.01 846.34 361.75 845.72Q361.49 845.09 361.03 844.63Q360.56 844.16 359.94 843.91Q359.31 843.65 358.57 843.65Q357.83 843.65 357.20 843.91Q356.57 844.16 356.10 844.63Q355.63 845.10 355.37 845.72Q355.11 846.35 355.11 847.10Q355.11 847.84 355.37 848.47Q355.63 849.10 356.10 849.57Q356.56 850.04 357.19 850.30Q357.82 850.55 358.57 850.55Z M370.78 852.00V842.20H374.78Q376.74 842.20 377.86 843.13Q378.97 844.05 378.97 845.69Q378.97 846.76 378.47 847.54Q377.97 848.31 377.03 848.73Q376.10 849.15 374.80 849.15H371.78L372.60 848.32V852.00ZM377.18 852.00 374.70 848.44H376.65L379.15 852.00ZM372.60 848.52 371.78 847.64H374.73Q375.92 847.64 376.53 847.13Q377.14 846.61 377.14 845.69Q377.14 844.75 376.53 844.25Q375.92 843.74 374.73 843.74H371.78L372.60 842.85Z M387.63 849.69 387.53 847.53 392.66 842.20H394.71L390.45 846.74L389.43 847.85ZM386.01 852.00V842.20H387.82V852.00ZM392.84 852.00 389.08 847.53 390.28 846.20 394.97 852.00Z M404.25 852.14Q403.10 852.14 402.05 851.81Q401.00 851.48 400.38 850.96L401.02 849.55Q401.61 850.02 402.48 850.32Q403.34 850.63 404.25 850.63Q405.02 850.63 405.50 850.46Q405.97 850.30 406.19 850.01Q406.42 849.72 406.42 849.35Q406.42 848.91 406.10 848.64Q405.78 848.37 405.27 848.20Q404.75 848.03 404.13 847.90Q403.51 847.76 402.89 847.57Q402.26 847.38 401.75 847.08Q401.23 846.77 400.92 846.27Q400.60 845.77 400.60 844.99Q400.60 844.19 401.02 843.52Q401.45 842.86 402.32 842.46Q403.20 842.06 404.54 842.06Q405.42 842.06 406.29 842.28Q407.16 842.51 407.81 842.93L407.23 844.35Q406.57 843.95 405.88 843.76Q405.18 843.57 404.52 843.57Q403.78 843.57 403.30 843.75Q402.83 843.93 402.61 844.23Q402.40 844.53 402.40 844.90Q402.40 845.35 402.72 845.62Q403.03 845.89 403.55 846.05Q404.06 846.21 404.68 846.35Q405.31 846.49 405.93 846.68Q406.55 846.86 407.07 847.16Q407.58 847.46 407.90 847.96Q408.22 848.45 408.22 849.22Q408.22 850.01 407.79 850.67Q407.35 851.34 406.47 851.74Q405.59 852.14 404.25 852.14Z M415.02 852.00V842.20H419.05Q420.35 842.20 421.28 842.62Q422.21 843.04 422.72 843.82Q423.22 844.60 423.22 845.69Q423.22 846.76 422.72 847.55Q422.21 848.33 421.28 848.75Q420.35 849.17 419.05 849.17H416.03L416.84 848.32V852.00ZM416.84 848.52 416.03 847.63H418.97Q420.17 847.63 420.78 847.12Q421.39 846.61 421.39 845.69Q421.39 844.75 420.78 844.25Q420.17 843.74 418.97 843.74H416.03L416.84 842.85Z M428.80 852.00 433.20 842.20H435.00L439.42 852.00H437.51L433.73 843.17H434.45L430.67 852.00ZM430.83 849.73 431.32 848.30H436.61L437.10 849.73Z M450.21 852.14Q449.08 852.14 448.12 851.77Q447.16 851.40 446.46 850.72Q445.75 850.04 445.36 849.12Q444.97 848.20 444.97 847.10Q444.97 846.00 445.36 845.08Q445.75 844.16 446.46 843.48Q447.17 842.80 448.13 842.43Q449.09 842.06 450.22 842.06Q451.42 842.06 452.41 842.47Q453.41 842.89 454.09 843.69L452.92 844.81Q452.39 844.23 451.73 843.94Q451.07 843.65 450.30 843.65Q449.54 843.65 448.90 843.90Q448.26 844.16 447.79 844.62Q447.32 845.08 447.06 845.71Q446.80 846.34 446.80 847.10Q446.80 847.86 447.06 848.49Q447.32 849.12 447.79 849.58Q448.26 850.04 448.90 850.30Q449.54 850.55 450.30 850.55Q451.07 850.55 451.73 850.26Q452.39 849.97 452.92 849.38L454.09 850.50Q453.41 851.30 452.41 851.72Q451.42 852.14 450.21 852.14Z M460.73 852.00V842.20H467.88V843.73H462.54V850.47H468.07V852.00ZM462.40 847.77V846.28H467.28V847.77Z  M484.64 849.27Q484.16 849.27 483.82 848.95Q483.49 848.62 483.49 848.10Q483.49 847.58 483.82 847.26Q484.16 846.94 484.64 846.94Q485.14 846.94 485.46 847.26Q485.78 847.58 485.78 848.10Q485.78 848.62 485.46 848.95Q485.14 849.27 484.64 849.27Z  M505.20 852.14Q504.03 852.14 503.10 851.55Q502.17 850.96 501.64 849.84Q501.10 848.71 501.10 847.10Q501.10 845.49 501.64 844.36Q502.17 843.24 503.10 842.65Q504.03 842.06 505.20 842.06Q506.37 842.06 507.29 842.65Q508.22 843.24 508.76 844.36Q509.29 845.49 509.29 847.10Q509.29 848.71 508.76 849.84Q508.22 850.96 507.29 851.55Q506.37 852.14 505.20 852.14ZM505.20 850.55Q505.87 850.55 506.38 850.18Q506.89 849.81 507.18 849.05Q507.46 848.28 507.46 847.10Q507.46 845.92 507.18 845.15Q506.89 844.39 506.38 844.02Q505.87 843.65 505.20 843.65Q504.53 843.65 504.02 844.02Q503.51 844.39 503.22 845.15Q502.93 845.92 502.93 847.10Q502.93 848.28 503.22 849.05Q503.51 849.81 504.02 850.18Q504.53 850.55 505.20 850.55Z M517.10 852.00V842.90L517.89 843.73H515.02V842.20H518.92V852.00Z" fill="#9aa3b5" />

<!-- esquina doblada -->
<path d="M792 800 L722 870 L722 800 Z" fill="url(#gFlap)" stroke="#b3b9c6" stroke-width="1" filter="url(#fFlap)"/>

<!-- clip metálico -->
<g transform="translate(676 124) rotate(7 42 125)" filter="url(#fSmall)">
<path d="M50 190 V38 A22 22 0 0 0 6 38 V214 A36 36 0 0 0 78 214 V62" fill="none" stroke="#5d6577" stroke-width="12" stroke-linecap="round" stroke-linejoin="round"/>
<path d="M50 190 V38 A22 22 0 0 0 6 38 V214 A36 36 0 0 0 78 214 V62" fill="none" stroke="url(#gClipMetal)" stroke-width="8" stroke-linecap="round" stroke-linejoin="round"/>
<path d="M50 190 V38 A22 22 0 0 0 6 38 V214 A36 36 0 0 0 78 214 V62" fill="none" stroke="#ffffff" stroke-opacity="0.8" stroke-width="2.5" stroke-linecap="round" stroke-linejoin="round" transform="translate(-1.5 -1.5)"/>
</g>

</g>
</svg>
