<svg xmlns="http://www.w3.org/2000/svg" viewBox="0 0 64 64" width="64" height="64" fill="none" stroke="#2b1b3d" stroke-width="2" stroke-linecap="round" stroke-linejoin="round">
  <path d="M32 0V19" stroke="#a99bc4" stroke-width="1.5"/>
  <path d="M27 25L15 15L10 22M26 29L10 29L6 38M25 36L10 42L9 52M26 43L16 52L16 60" stroke-width="3"/>
  <path d="M37 25L49 15L54 22M38 29L54 29L58 38M39 36L54 42L55 52M38 43L48 52L48 60" stroke-width="3"/>
  <circle cx="32" cy="41" r="11" fill="#7b4dbf"/>
  <circle cx="32" cy="26" r="6.5" fill="#7b4dbf"/>
  <path d="M29 36H35L32 40L35 45H29L32 40Z" fill="#ff8a1f" stroke="none"/>
  <circle cx="29.5" cy="25" r="2" fill="#fff" stroke-width="1"/>
  <circle cx="34.5" cy="25" r="2" fill="#fff" stroke-width="1"/>
  <circle cx="29.7" cy="25.3" r=".9" fill="#2b1b3d" stroke="none"/>
  <circle cx="34.3" cy="25.3" r=".9" fill="#2b1b3d" stroke="none"/>
  <path d="M26 44q-1-5 2-7" stroke="#9b6fe0" stroke-width="1.5"/>
</svg>
