<svg xmlns="http://www.w3.org/2000/svg" viewBox="0 0 64 64" width="64" height="64" fill="none" stroke="#2b1b3d" stroke-width="2" stroke-linecap="round" stroke-linejoin="round">
  <circle cx="11" cy="12" r="5" fill="#ffe27a" stroke="none"/>
  <rect x="41" y="11" width="8" height="14" fill="#4b3a73"/>
  <rect x="14" y="28" width="36" height="26" fill="#6a4aa5"/>
  <path d="M10 31L32 10L54 31Z" fill="#3b2a5c"/>
  <path d="M44 22l8 9H44z" fill="#2b1b3d" stroke="none" opacity=".35"/>
  <circle cx="32" cy="22" r="4.5" fill="#ffd23f" stroke-width="1.5"/>
  <path d="M32 17.5v9M27.5 22h9" stroke-width="1.2"/>
  <rect x="18" y="35" width="8" height="9" rx="1" fill="#ffd23f" stroke-width="1.5"/>
  <path d="M22 35v9M18 39.5h8" stroke-width="1.2"/>
  <rect x="38" y="35" width="8" height="9" rx="1" fill="#ffd23f" stroke-width="1.5"/>
  <path d="M42 35v9M38 39.5h8" stroke-width="1.2"/>
  <path d="M28 54V47a4 4 0 0 1 8 0V54Z" fill="#d9560b"/>
  <circle cx="34" cy="50.5" r=".9" fill="#ffd23f" stroke="none"/>
  <path d="M4 54H60" stroke-width="2.5"/>
  <path d="M6 54l1.5-5 1.5 4 1.5-3 1.5 4zM52 54l1.5-4 1.5 4 1.5-5 1.5 5z" fill="#7ed957" stroke-width="1.2"/>
</svg>
