<svg xmlns="http://www.w3.org/2000/svg" viewBox="0 0 64 64" width="64" height="64" fill="none" stroke="#2b1b3d" stroke-width="2" stroke-linecap="round" stroke-linejoin="round">
  <path d="M40 8A24 24 0 1 0 56 44A19 19 0 0 1 40 8z" fill="#ffe27a"/>
  <circle cx="19" cy="30" r="3" fill="#f0c94f" stroke="none"/>
  <circle cx="22" cy="44" r="2.5" fill="#f0c94f" stroke="none"/>
  <circle cx="24" cy="18" r="2" fill="#f0c94f" stroke="none"/>
  <circle cx="17" cy="40" r="1.5" fill="#f0c94f" stroke="none"/>
  <path d="M50 6l2 5 5 2-5 2-2 5-2-5-5-2 5-2z" fill="#ffd23f" stroke="none"/>
  <circle cx="57" cy="28" r="1.8" fill="#ffd23f" stroke="none"/>
  <circle cx="46" cy="30" r="1.2" fill="#ffd23f" stroke="none"/>
  <path d="M42 56q0-5 5-5q1-4 6-3q5 0 5 5q4 0 4 4H42z" fill="#8f7fc4" stroke-width="1.5"/>
</svg>
